#N canvas 236 64 1071 776 10;
#X obj 87 235 dac~;
#X obj 225 159 vline~;
#X obj 225 85 r click;
#X obj 87 198 *~;
#X obj 87 161 osc~ 440;
#X obj 87 85 r freq;
#X msg 225 122 1 5 \, 0 50 5;
#X obj 130 85 r \$0-freq;
#X obj 283 85 r \$0-click;
#X connect 1 0 3 1;
#X connect 2 0 6 0;
#X connect 3 0 0 0;
#X connect 3 0 0 1;
#X connect 4 0 3 0;
#X connect 5 0 4 0;
#X connect 6 0 1 0;
#X connect 7 0 4 0;
#X connect 8 0 6 0;
